<?xml version="1.0" encoding="utf-8"?>
<!-- Generator: Adobe Illustrator 22.1.0, SVG Export Plug-In . SVG Version: 6.00 Build 0)  -->
<svg version="1.1" id="Layer_1" xmlns="http://www.w3.org/2000/svg" xmlns:xlink="http://www.w3.org/1999/xlink" x="0px" y="0px"
	 viewBox="0 0 726.1 288" style="enable-background:new 0 0 726.1 288;" xml:space="preserve">
<style type="text/css">
	.st0{fill:url(#SVGID_1_);}
	.st1{fill:#FFFFFF;}
</style>
<g>
	
		<linearGradient id="SVGID_1_" gradientUnits="userSpaceOnUse" x1="36.7545" y1="162.35" x2="180.0222" y2="162.35" gradientTransform="matrix(1 0 0 -1 0 288)">
		<stop  offset="2.371540e-02" style="stop-color:#FF0053"/>
		<stop  offset="0.3992" style="stop-color:#FD3C30"/>
		<stop  offset="0.8055" style="stop-color:#FC780E"/>
		<stop  offset="1" style="stop-color:#FB8F00"/>
	</linearGradient>
	<path class="st0" d="M100.2,163.2c-9.2-6.3-18-13.1-26.4-20.5l-2.8-2.5l-1.8,3.3c-2.1,3.8-3.9,7.9-4.7,12.2
		c-2.2,15,11,17.3,23.2,16.4c-4.9,2.1-10.3,3.4-15.2,4.3c-7.9,1.1-16.7,0.1-22.8-5.7c-12.1-11.6-5.5-33.4,0.7-46.1l1.1-2.2l-1.9-1.5
		c-4-3.2-8.3-6.4-12.8-9.2c3.8-0.9,7.7-0.7,11.8,0.6l4.3,2c19,9.3,38.4,21.3,56.5,32.3l0.2,0.1c7.2,3.8,16.5,7,24.7,4.7
		c5.7-1.6,10.1-5.9,11-11.9c0.1-0.8,0.2-1.5,0.2-2.3c0-10.5-24.1-37.6-31.5-46.2l-2.6-3l-2.3,3.2c-5.7,8.2-9,13.2-15.6,20.8
		c-2.2,2.6,14.8,20.3,17,23.3c-9.7-6.7-37-25.8-47.8-30.9c15.4-21.4,33.9-40,48.9-61.8c7.6,13.4,18.1,25.7,28.1,37.2
		c14.9,17.1,35.2,38.9,39.3,61.9c6.4,35.9-21.7,41.4-50.7,34.6l-6.2-1.5l2.8,5.7c4.7,9.7,12.7,15.4,22.8,18.2v10H77.2V199
		c13.4-4.2,23.4-15.5,26-29.3l10.8,2.4l-10.2-6.4L100.2,163.2L100.2,163.2z"/>
	<g>
		<g>
			<path class="st1" d="M222.5,115c0.6-1.5,2.5-2.8,4.1-2.8h20c1.4,0,3.5,1.2,4.1,2.8l21.3,52.8c0.1,0.3,0.2,0.6,0.2,0.9
				c0,1-0.8,1.8-2.1,1.8h-17.2c-1.4,0-3.4-1.3-4-2.8l-2.6-7.5h-20.5l-2.7,7.5c-0.4,1.1-2.3,2.8-4,2.8h-16.7c-1.1,0-2-0.8-2-1.9
				c0-0.3,0.1-0.6,0.2-0.9L222.5,115z M241.6,146.4l-5.3-15.5l-5.5,15.5H241.6z"/>
			<path class="st1" d="M270.6,115.3c0-1.5,1.3-3,3-3h18c1.4,0,3,1.3,3,3v29.9c0,4.9,2.6,8.1,7.2,8.1c4.6,0,7.2-3.2,7.2-8.1v-29.9
				c0-1.5,1.3-3,3-3h18c1.4,0,3,1.3,3,3v29.8c0,15.6-12.4,26.3-31.2,26.3s-31.2-10.7-31.2-26.3V115.3z"/>
			<path class="st1" d="M336.3,115.3c0-1.6,1.3-3,3-3c10.6,0,18.6-0.5,33.7-0.5c16.5,0,29,8.5,29,19.7c0,7.4-5.7,13.8-14.2,17
				l17.2,19.9c1,1.1,0.6,2.3-1,2.3H379c-1.5,0-3.6-1.2-4.4-2.7l-8.9-17.3h-6.2v20h-20.3c-1.4,0-3-1.3-3-3V115.3z M374.7,135.3
				c1.7,0,3-1.3,3-2.8c0-1.6-1.5-2.9-3.3-2.9c-5.3,0-13.3,0.4-14.7,0.4v4.9C360.8,134.8,369.2,135.3,374.7,135.3z M418.8,115
				c0.7-1.7,2.3-2.8,4.1-2.8h20c1.9,0,3.4,1.1,4.1,2.8l21.3,52.8c0.6,1.5-0.2,2.8-1.9,2.8h-17.2c-1.8,0-3.4-1.1-4-2.8l-2.6-7.5
				c-10.4,0-20.3,0.2-28.3,8.2c-0.9,0.9-2.7,1.1-3.7-0.2l-7.4-8.5c-1.2-1.4-1.5-3.3-0.8-5L418.8,115z M437.9,146.4l-5.3-15.5
				l-5.8,16.5C429.3,146.6,433.1,146.4,437.9,146.4z"/>
		</g>
		<g>
			<path class="st1" d="M493.6,141.6c-1.5-4.8-3.8-8.2-8.9-8.2c-2.9,0-5.3,2.1-5.3,5.4c0,3.7,2.7,5.4,7.2,7.4
				c6.8,3,10.7,5.7,10.7,11.4c0,7.7-7,11.6-13.6,11.6c-4.3,0-8.2-1.4-9.9-2.4c-0.4-2.4-1.2-7.2-1.5-9.9l2.4-0.4
				c1.5,5.3,4.4,9.9,10.2,9.9c3.2,0,6-2.2,6-5.7c0-3.7-2.2-5.7-6.8-7.7c-5.4-2.5-10.7-5.2-10.7-11.6c0-6.1,5.3-10.7,13.2-10.7
				c3.5,0,6.5,0.8,8.2,1.1c0.2,2,0.8,7.2,1.2,9.2L493.6,141.6z"/>
			<path class="st1" d="M535.6,134c-4.3,0.7-5.2,1.3-7.3,6.1c-2.1,4.7-4.3,10.3-10.1,24.8c-5.4,13.3-6.9,18.5-8.2,22.8
				c-0.5,1.7-1.4,2.2-2.5,2.2c-2.7,0-5.1-1.9-5.1-4c0-1.1,0.6-1.8,1.8-2.9c2.7-2.1,4.6-4.1,5.6-6.2c1.8-3.5,3-6.4,3.4-7.5
				c0.3-1.2,0.3-2-0.2-3.4c-3.2-9.5-7.7-19.7-10.2-25.7c-1.8-4.6-2.6-5.6-7.2-6.2v-2.2h16.8v2.2c-3.8,0.6-4.2,1.4-3.2,4.5l8.1,20.5
				c2.3-5.7,5.7-15,7.4-20.2c1-3.2,0.4-4.1-4.4-4.7v-2.2h15.2V134z"/>
			<path class="st1" d="M555,141.6c-1.5-4.8-3.8-8.2-8.9-8.2c-2.9,0-5.3,2.1-5.3,5.4c0,3.7,2.7,5.4,7.2,7.4
				c6.8,3,10.7,5.7,10.7,11.4c0,7.7-7,11.6-13.6,11.6c-4.3,0-8.2-1.4-9.9-2.4c-0.4-2.4-1.2-7.2-1.5-9.9l2.4-0.4
				c1.5,5.3,4.4,9.9,10.2,9.9c3.2,0,6-2.2,6-5.7c0-3.7-2.2-5.7-6.8-7.7c-5.4-2.5-10.7-5.2-10.7-11.6c0-6.1,5.3-10.7,13.2-10.7
				c3.5,0,6.5,0.8,8.2,1.1c0.2,2,0.8,7.2,1.2,9.2L555,141.6z"/>
			<path class="st1" d="M575,168.2c-1.4,0.7-2.8,1.1-3.6,1.1c-5.3,0-8.2-3.2-8.2-9.9v-24.2h-5.7l-0.3-1l2.2-2.4h3.8v-7
				c1.6-1.7,4-3.8,5.6-5.5l1.2,0.2c-0.2,3.5-0.2,8.3-0.2,12.3h9.5c0.8,0.8,0.5,2.7-0.5,3.4h-9v21.3c0,6.7,2.7,8,4.8,8
				c2,0,3.9-0.8,5.1-1.3l0.8,2.2L575,168.2z"/>
			<path class="st1" d="M608.4,161.2c-5.3,6.7-11.2,8.1-13.8,8.1c-10.2,0-16.3-8.3-16.3-17.9c0-5.7,2-10.9,5.4-14.6
				c3.5-3.9,8.1-6.1,12.4-6.1c7.2,0,12.7,6.2,12.7,12.9c-0.1,1.7-0.3,2.4-1.7,2.7c-1.7,0.3-12.3,1.1-22.2,1.4
				c-0.2,11.2,6.6,15.7,12.5,15.7c3.4,0,6.6-1.4,9.7-4.2L608.4,161.2z M594.1,133.9c-3.8,0-7.6,3.6-8.7,10.3c4.7,0,9.3,0,14.2-0.2
				c1.5,0,2-0.4,2-1.7C601.7,137.9,598.8,133.9,594.1,133.9z"/>
			<path class="st1" d="M654.6,168.3V166c4.9-0.5,5.5-0.8,5.5-6.7v-13.9c0-5.9-2-9.7-7.2-9.7c-3.2,0-6.1,1.7-9.2,4.3
				c0.1,1,0.2,2,0.2,3.6v16.2c0,5.2,0.8,5.7,5.3,6.2v2.3h-17.8V166c5.2-0.5,5.9-0.8,5.9-6.3v-14.3c0-6.2-1.9-9.6-7-9.6
				c-3.3,0-6.6,2.2-9.2,4.3v19.6c0,5.5,0.6,5.8,5.3,6.3v2.3h-17.9V166c5.5-0.5,6-0.8,6-6.3v-17.2c0-5.3-0.3-5.7-5-6.5v-2.1
				c3.9-0.6,7.8-1.7,11.6-3.3c0,2,0,4.7,0,6.7c1.7-1.3,3.5-2.7,6.2-4.3c2.1-1.3,3.9-2.2,6.6-2.2c4,0,7.4,2.5,9.1,6.8
				c2.3-1.8,4.5-3.2,6.6-4.7c1.8-1.2,4.2-2.2,6.6-2.2c6.5,0,10.5,4.7,10.5,12.8v16.1c0,5.6,0.5,5.8,5.2,6.3v2.3H654.6z"/>
			<path class="st1" d="M693,141.6c-1.5-4.8-3.8-8.2-8.9-8.2c-2.9,0-5.3,2.1-5.3,5.4c0,3.7,2.7,5.4,7.2,7.4
				c6.8,3,10.7,5.7,10.7,11.4c0,7.7-7,11.6-13.6,11.6c-4.3,0-8.2-1.4-9.9-2.4c-0.4-2.4-1.2-7.2-1.5-9.9l2.4-0.4
				c1.5,5.3,4.4,9.9,10.2,9.9c3.2,0,6-2.2,6-5.7c0-3.7-2.2-5.7-6.8-7.7c-5.4-2.5-10.7-5.2-10.7-11.6c0-6.1,5.3-10.7,13.2-10.7
				c3.5,0,6.5,0.8,8.2,1.1c0.2,2,0.8,7.2,1.2,9.2L693,141.6z"/>
		</g>
	</g>
</g>
</svg>
